<svg xmlns="http://www.w3.org/2000/svg" viewBox="0 0 512 512">
  <defs>
    <linearGradient id="sky" x1="0" y1="0" x2="0" y2="1">
      <stop offset="0" stop-color="#7fa8d0"/>
      <stop offset="0.55" stop-color="#f0b97e"/>
      <stop offset="1" stop-color="#fbd9a3"/>
    </linearGradient>
    <linearGradient id="water" x1="0" y1="0" x2="0" y2="1">
      <stop offset="0" stop-color="#5c8cb8"/>
      <stop offset="1" stop-color="#35618c"/>
    </linearGradient>
    <linearGradient id="bird" x1="0" y1="0" x2="0" y2="1">
      <stop offset="0" stop-color="#ffcf7d"/>
      <stop offset="1" stop-color="#ef8f4d"/>
    </linearGradient>
    <clipPath id="rr"><rect width="512" height="512" rx="96"/></clipPath>
  </defs>
  <g clip-path="url(#rr)">
    <rect width="512" height="340" fill="url(#sky)"/>
    <circle cx="120" cy="300" r="60" fill="#fff3c9" opacity="0.4"/>
    <circle cx="120" cy="300" r="37" fill="#fff7d6"/>
    <!-- clouds: corners, away from the bird's head -->
    <g fill="#fdf1dd">
      <path d="M46 148 a15 15 0 0 1 29 -4 a12 12 0 0 1 21 8 a8 8 0 0 1 -4 14 h-57 a9 9 0 0 1 -2 -17 a13 13 0 0 1 13 -1 Z"/>
    </g>
    <rect y="340" width="512" height="172" fill="url(#water)"/>
    <g fill="#ffe9b0" opacity="0.6">
      <rect x="98" y="354" width="44" height="8" rx="4"/>
      <rect x="110" y="374" width="26" height="7" rx="3.5"/>
      <rect x="94" y="394" width="50" height="7" rx="3.5"/>
      <rect x="114" y="416" width="22" height="6" rx="3"/>
    </g>
    <!-- reeds, far left -->
    <g fill="#3d2c15">
      <rect x="48" y="216" width="7" height="134"/>
      <rect x="42" y="188" width="19" height="52" rx="9"/>
      <rect x="82" y="246" width="6" height="104"/>
      <rect x="77" y="220" width="16" height="46" rx="8"/>
    </g>
    <!-- tail: behind the branch -->
    <path d="M258 272 L 342 336 L 322 354 L 244 294 C 248 286, 252 278, 258 272 Z" fill="#e07f42"/>
    <!-- tree on the right: trunk edge + branches reaching in -->
    <g fill="#4c3418">
      <path d="M478 0 C 472 90, 470 200, 474 340 C 476 400, 479 460, 484 512 L 512 512 L 512 0 Z"/>
      <!-- main branch (the perch) -->
      <path d="M480 296 C 396 294, 296 298, 196 306 C 182 307, 172 309, 166 312 C 174 316, 184 318, 198 318 C 296 312, 396 310, 480 314 Z"/>
      <!-- upper branch -->
      <path d="M478 128 C 432 124, 388 128, 350 140 C 344 142, 340 144, 338 147 C 342 150, 348 151, 356 150 C 392 142, 434 140, 478 144 Z"/>
      <!-- small stub between -->
      <path d="M478 216 C 452 214, 428 216, 410 222 C 406 223, 404 225, 403 227 C 406 229, 410 230, 416 229 C 434 224, 456 224, 478 228 Z"/>
    </g>
    <!-- leaf clusters on the upper branch -->
    <g fill="#5d7a42">
      <ellipse cx="364" cy="122" rx="26" ry="15"/>
      <ellipse cx="402" cy="110" rx="30" ry="17"/>
      <ellipse cx="442" cy="120" rx="26" ry="15"/>
      <ellipse cx="420" cy="136" rx="24" ry="13"/>
    </g>
    <!-- bird: BIG, centered, upright, facing the sun -->
    <g>
      <rect x="219" y="272" width="8" height="38" fill="#4c3418"/>
      <rect x="252" y="272" width="8" height="38" fill="#4c3418"/>
      <path d="M195 257
               C 174 218, 177 164, 204 137
               C 216 101, 258 86, 288 104
               C 309 116, 315 140, 306 161
               C 312 203, 300 245, 264 272
               C 240 287, 213 281, 195 257 Z" fill="url(#bird)"/>
      <path d="M228 194 C 252 176, 285 176, 306 194 C 291 224, 258 236, 228 224 Z" fill="#e07f42"/>
      <path d="M204 131 L 147 146 L 207 158 Z" fill="#4c3418"/>
      <circle cx="228" cy="137" r="11" fill="#2b1c0c"/>
    </g>
  </g>
  <g fill="none" stroke="#ffffff" stroke-opacity="0.95" stroke-width="16" stroke-linecap="round">
    <path d="M120 84 H84 V120"/>
    <path d="M392 84 H428 V120"/>
    <path d="M120 428 H84 V392"/>
    <path d="M392 428 H428 V392"/>
  </g>
</svg>
