<svg xmlns="http://www.w3.org/2000/svg" viewBox="0 0 512 512">
  <defs>
    <linearGradient id="sky" x1="0" y1="0" x2="0" y2="1">
      <stop offset="0" stop-color="#7fa8d0"/>
      <stop offset="0.55" stop-color="#f0b97e"/>
      <stop offset="1" stop-color="#fbd9a3"/>
    </linearGradient>
    <linearGradient id="water" x1="0" y1="0" x2="0" y2="1">
      <stop offset="0" stop-color="#5c8cb8"/>
      <stop offset="1" stop-color="#35618c"/>
    </linearGradient>
    <linearGradient id="bird" x1="0" y1="0" x2="0" y2="1">
      <stop offset="0" stop-color="#ffcf7d"/>
      <stop offset="1" stop-color="#ef8f4d"/>
    </linearGradient>
    <clipPath id="rr"><rect width="512" height="512" rx="96"/></clipPath>
  </defs>
  <g clip-path="url(#rr)">
    <rect width="512" height="340" fill="url(#sky)"/>
    <!-- sun low left -->
    <circle cx="128" cy="300" r="62" fill="#fff3c9" opacity="0.4"/>
    <circle cx="128" cy="300" r="38" fill="#fff7d6"/>
    <!-- clouds: small, below the top brackets, far from the bird -->
    <g fill="#fdf1dd">
      <path d="M52 152 a15 15 0 0 1 29 -4 a12 12 0 0 1 21 8 a8 8 0 0 1 -4 14 h-57 a9 9 0 0 1 -2 -17 a13 13 0 0 1 13 -1 Z"/>
      <path d="M418 150 a13 13 0 0 1 26 -3 a11 11 0 0 1 18 7 a7 7 0 0 1 -3 12 h-52 a8 8 0 0 1 -2 -15 a12 12 0 0 1 13 -1 Z"/>
    </g>
    <!-- water -->
    <rect y="340" width="512" height="172" fill="url(#water)"/>
    <g fill="#ffe9b0" opacity="0.6">
      <rect x="106" y="354" width="44" height="8" rx="4"/>
      <rect x="118" y="374" width="26" height="7" rx="3.5"/>
      <rect x="102" y="394" width="50" height="7" rx="3.5"/>
      <rect x="122" y="416" width="22" height="6" rx="3"/>
    </g>
    <!-- dock with sign, bottom right, clear of everything -->
    <g>
      <path d="M338 512 L 502 512 L 452 356 L 414 356 Z" fill="#8a6134"/>
      <path d="M338 512 L 414 356 L 420 356 L 354 512 Z" fill="#6d4b26"/>
      <path d="M502 512 L 452 356 L 446 356 L 484 512 Z" fill="#6d4b26"/>
      <g stroke="#6d4b26" stroke-width="6">
        <line x1="356" y1="472" x2="494" y2="472"/>
        <line x1="372" y1="434" x2="482" y2="434"/>
        <line x1="388" y1="400" x2="470" y2="400"/>
        <line x1="400" y1="376" x2="460" y2="376"/>
      </g>
      <rect x="428" y="334" width="7" height="46" fill="#4c3418"/>
      <rect x="402" y="300" width="60" height="38" rx="5" fill="#5a3f1e"/>
      <g fill="#ffe9b0" opacity="0.8">
        <rect x="411" y="311" width="42" height="5" rx="2.5"/>
        <rect x="411" y="322" width="28" height="5" rx="2.5"/>
      </g>
    </g>
    <!-- reeds, far left -->
    <g fill="#3d2c15">
      <rect x="52" y="210" width="7" height="140"/>
      <rect x="46" y="182" width="19" height="52" rx="9"/>
      <rect x="86" y="240" width="6" height="110"/>
      <rect x="81" y="214" width="16" height="46" rx="8"/>
    </g>
    <!-- tail: behind the branch, rooted where the body will sit -->
    <path d="M262 248 L 342 330 L 322 350 L 244 268 C 249 260, 255 253, 262 248 Z" fill="#e07f42"/>
    <!-- branch: enters from the LEFT, tapers to a tip before the dock -->
    <path d="M-8 296 C 90 300, 210 300, 330 306 C 348 307, 360 309, 366 312 C 358 316, 346 318, 328 318 C 210 314, 90 312, -8 310 Z" fill="#4c3418"/>
    <!-- bird: centered, upright, facing the sun -->
    <g>
      <rect x="238" y="272" width="5" height="32" fill="#4c3418"/>
      <rect x="260" y="272" width="5" height="32" fill="#4c3418"/>
      <path d="M222 262
               C 208 236, 210 200, 228 182
               C 236 158, 264 148, 284 160
               C 298 168, 302 184, 296 198
               C 300 226, 292 254, 268 272
               C 252 282, 234 278, 222 262 Z" fill="url(#bird)"/>
      <path d="M244 220 C 260 208, 282 208, 296 220 C 286 240, 264 248, 244 240 Z" fill="#e07f42"/>
      <path d="M228 178 L 190 188 L 230 196 Z" fill="#4c3418"/>
      <circle cx="244" cy="182" r="8" fill="#2b1c0c"/>
    </g>
  </g>
  <g fill="none" stroke="#ffffff" stroke-opacity="0.95" stroke-width="16" stroke-linecap="round">
    <path d="M120 84 H84 V120"/>
    <path d="M392 84 H428 V120"/>
    <path d="M120 428 H84 V392"/>
    <path d="M392 428 H428 V392"/>
  </g>
</svg>
